<svg viewBox="0 0 512 512" xmlns="http://www.w3.org/2000/svg"><path d="M0 405.3V448c0 35.25 85.1 64 192 64 105.1 0 192-28.75 192-64v-42.75C342.8 434.4 267.2 448 192 448S41.25 434.4 0 405.3zM320 128c105.1 0 192-28.75 192-64S426 0 320 0C213.1 0 128 28.75 128 64s85.1 64 192 64zM0 300.4V352c0 35.25 85.1 64 192 64 105.1 0 192-28.75 192-64v-51.6c-41.2 34-116.9 51.6-192 51.6S41.25 334.4 0 300.4zm416 11c57.3-11.2 96-31.6 96-55.4v-42.8c-23.25 16.5-57.25 27.63-96 34.5v63.7zM192 160C85.1 160 0 195.8 0 240s85.1 80 192 80c105.1 0 192-35.75 192-80s-86.9-80-192-80zm219.2 56.2c60.1-10.7 100.8-32 100.8-56.2v-42.8c-35.5 25.13-96.5 38.63-160.8 41.88 29.6 14.32 51.3 33.52 60 57.12z" fill="#6900ff" class="fill-000000"></path></svg>